<svg width="225" height="228" viewBox="0 0 225 228" fill="none" xmlns="http://www.w3.org/2000/svg">
<path d="M111.69 110.922L112.088 111.143L112.232 111.748L109.24 118.845C109.055 118.658 108.913 118.48 108.757 118.27C109.02 117.77 109.158 117.203 109.389 116.684L111.69 110.922Z" fill="#010000"/>
<path d="M123.612 86.7124L124.239 86.6348C123.837 91.5228 121.757 95.9505 118.008 99.1628C117.811 99.3307 117.67 99.4303 117.434 99.5411C116.045 99.074 114.632 98.3291 113.394 97.5462L113.541 97.2753C114.738 97.6282 116.038 98.4189 117.191 98.9485C117.465 98.787 117.7 98.6195 117.942 98.4126C121.011 95.7889 123.294 90.6803 123.612 86.7124Z" fill="#010000"/>
<path d="M113.541 97.2755L113.45 97.0109L123.68 85.1169L123.612 86.7126C123.294 90.6805 121.011 95.7892 117.942 98.4128C117.7 98.6198 117.465 98.7872 117.191 98.9488C116.038 98.4192 114.738 97.6284 113.541 97.2755Z" fill="#0C0C0C"/>
<path d="M111.69 110.922L114.003 105.289C114.81 103.404 115.597 100.883 117.368 99.7257L117.783 99.4236C121.667 101.448 123.853 106.678 125.088 110.667C125.748 112.8 125.951 114.858 125.728 117.076C125.176 116.436 124.798 115.414 124.375 114.663C123.293 112.743 122.22 111.093 121.431 109.02C121.356 110.508 121.419 112.957 120.417 114.138L120.263 114.334L120.157 114.464C120.656 116.396 122.187 118.087 122.396 120.155L120.477 116.084C119.659 118.911 118.627 122.023 117.181 124.59C117.007 124.899 116.761 125.5 116.472 125.698L116.416 125.55C115.733 123.8 114.851 122.172 114.208 120.398C114.057 119.982 114.196 119.64 114.308 119.229C114.556 118.318 115.466 116.247 115.275 115.36C115.16 114.831 114.408 113.926 114.135 113.372C113.61 112.303 113.129 111.178 112.763 110.044C112.608 110.622 112.468 111.196 112.232 111.748L112.088 111.143L111.69 110.922Z" fill="#0C0C0C"/>
<path fill-rule="evenodd" clip-rule="evenodd" d="M97.7067 87.8859L113.394 97.5463L113.541 97.2754L113.45 97.0108L123.681 85.1168L123.612 86.7125L124.239 86.6348C124.243 86.5013 124.242 86.3578 124.24 86.2092C124.237 85.6898 124.233 85.1087 124.404 84.6741C124.67 84.0016 124.605 83.0656 124.548 82.2456C124.532 82.0162 124.517 81.796 124.51 81.5931L128.635 82.7284C130.789 83.1492 133.334 83.0852 135.192 81.7912C136.023 81.2123 136.731 80.2581 137.042 79.294C137.209 78.7795 137.302 78.226 137.359 77.6881C137.418 77.1225 137.443 76.5508 137.468 75.9785C137.512 74.9634 137.556 73.9463 137.795 72.9578C137.989 72.1538 138.263 71.3707 138.538 70.5876C138.882 69.6048 139.227 68.6219 139.413 67.5972L139.446 67.4C139.54 66.8836 139.561 66.5453 139.441 66.0284L139.285 65.2831L139.285 65.2825C139.354 64.9966 139.411 64.7083 139.467 64.4204C139.582 63.8331 139.696 63.247 139.921 62.6845C140.053 62.3554 140.218 62.0311 140.382 61.706C140.618 61.2408 140.855 60.774 140.998 60.2893C141.092 59.9685 141.132 59.6342 141.172 59.2999C141.205 59.0242 141.238 58.7485 141.302 58.4803C141.44 57.8985 141.598 57.3309 141.756 56.7666C142.118 55.4719 142.474 54.1949 142.568 52.8059C142.668 51.3259 142.493 49.7932 142.277 48.3299C142.255 48.1846 142.2 47.9728 142.141 47.7446C142.035 47.3386 141.916 46.8804 141.949 46.6517C141.957 46.5922 142.105 46.382 142.212 46.2307C142.255 46.1698 142.291 46.1185 142.308 46.0904C142.776 45.3426 142.954 44.9858 142.959 44.07C142.483 43.8515 141.926 43.8277 141.374 43.8039C141.043 43.7897 140.713 43.7756 140.403 43.7196C139.96 43.6394 139.379 43.6267 138.941 43.8262C139.379 43.6266 139.96 43.6393 140.403 43.7194C140.713 43.7754 141.043 43.7896 141.374 43.8038C141.926 43.8275 142.483 43.8514 142.959 44.0699L143.14 43.8859C143.702 43.2157 144.613 41.5561 145.033 39.9522C145.185 38.5838 144.906 36.971 144.629 35.3705C144.461 34.4018 144.294 33.4376 144.224 32.5347C144.46 32.3522 144.704 32.1722 144.951 31.9909C145.544 31.5542 146.148 31.1103 146.658 30.6066C148.241 29.0422 149.387 26.579 149.64 24.3753C149.9 22.1063 149.236 19.7479 147.778 17.9865C146.805 16.8114 145.782 16.2767 144.326 15.8807C144.244 15.8585 144.215 15.8584 144.201 15.8437C144.186 15.8263 144.193 15.7883 144.165 15.669C145.156 12.4524 145.279 9.39165 143.677 6.3167C142.376 3.82051 140.396 3.09918 137.711 2.69285C136.979 4.31948 135.515 4.90797 134.167 4.98448C132.284 5.09134 130.101 4.20753 128.138 3.4128C127.489 3.15008 126.865 2.8971 126.283 2.69285C118.285 -0.114416 107.851 -2.31114 101.269 4.68658C100.711 5.27993 100.192 5.93255 99.7456 6.61401C99.6805 6.71337 99.5883 6.8813 99.4828 7.07333C99.2322 7.52942 98.907 8.12147 98.6937 8.25365C98.4782 8.38712 97.8678 8.4423 97.3377 8.49022C97.0454 8.51665 96.7776 8.54087 96.6138 8.57479C95.2905 8.84867 94.0722 9.40717 92.9012 10.0686C84.7008 14.6996 83.1329 25.0315 83.4639 33.6461C83.83 43.1752 87.4142 51.7368 92.0362 59.9308C92.2341 60.2816 92.4369 60.671 92.6476 61.0755C93.2955 62.3194 94.0181 63.7068 94.9025 64.5558C95.2856 64.9233 95.7147 65.1396 96.2077 65.3182C96.3644 65.8563 96.2823 66.6202 96.2103 67.2908C96.1852 67.5248 96.1612 67.7475 96.1491 67.9453C95.9412 71.3353 95.6361 74.816 94.9771 78.1499L94.8444 78.1572L94.6237 78.1792L94.4744 78.1904C93.6251 78.2709 92.8597 78.8235 92.3462 79.4844C91.8981 80.0604 91.5398 80.752 91.6355 81.5018C91.9437 83.919 94.9995 86.0209 97.0713 87.446C97.2963 87.6008 97.5097 87.7476 97.7067 87.8859ZM137.573 45.2326L137.378 45.1413L137.391 44.3125C137.405 44.0986 137.372 44.0529 137.286 43.9323C137.265 43.9022 137.24 43.8673 137.212 43.8239C137.212 43.824 137.212 43.8241 137.212 43.8242C137.24 43.8675 137.265 43.9023 137.286 43.9325C137.372 44.0531 137.405 44.0987 137.391 44.3126L137.377 45.1415L137.573 45.2327L137.573 45.2326ZM139.907 60.828L139.039 61.1009L139.038 61.101L139.906 60.8281C139.906 60.8281 139.906 60.8281 139.907 60.828ZM138.8 61.179L138.031 61.3932L138.031 61.3933L138.8 61.1791L138.8 61.179Z" fill="#0C0C0C"/>
<path d="M116.284 211.35L119.903 211.349C120.195 211.349 120.883 211.266 121.124 211.349C121.225 211.383 121.286 211.487 121.366 211.557L121.293 211.774L117.529 211.814C117.11 211.81 116.531 211.891 116.178 211.657L116.284 211.35Z" fill="#010000"/>
<path d="M113.715 204.067C114.589 204.682 115.589 204.52 116.629 204.529L121.015 204.556C120.71 204.801 120.154 204.701 119.756 204.701L115.896 204.707C115.988 204.971 116.007 204.934 116.227 205.078C115.467 205.096 114.605 205.028 113.881 205.273C113.661 205.626 113.703 205.803 113.699 206.212L113.576 206.074C113.509 205.765 113.465 205.636 113.57 205.33C113.71 204.918 113.7 204.5 113.715 204.067Z" fill="#161515"/>
<path d="M130.457 219.618L134.653 219.631C135.297 219.634 136.072 219.552 136.702 219.648L136.525 219.803L132.744 219.83L132.573 220.113C132.971 220.377 133.892 220.262 134.388 220.266L139.42 220.27C140.156 220.267 141.124 220.139 141.814 220.342C140.491 220.546 139.05 220.449 137.71 220.455L130.361 220.428L130.613 219.989L130.457 219.618Z" fill="#161515"/>
<path d="M134.671 195.569L138.495 195.508C139.81 195.87 141.502 195.669 142.872 195.662L142.818 195.851C142.371 196.049 141.871 195.945 141.402 196.036C140.598 196.176 139.581 196.058 138.756 196.051L132.597 195.993L132.561 195.851L131.936 195.805L131.864 195.662L134.506 195.589L134.671 195.569Z" fill="#010000"/>
<path d="M120.729 208.348C121.315 208.332 122.319 208.184 122.87 208.301C123.3 208.333 123.74 208.283 124.104 208.523C124.048 208.587 123.837 208.79 123.834 208.87L115.213 208.866L115.142 208.708L113.846 208.667L113.987 208.485C114.534 208.36 115.053 208.45 115.605 208.473C116.378 208.505 120.337 208.71 120.729 208.348Z" fill="#010000"/>
<path d="M139.748 181.793L144.392 181.884C144.308 182.117 144.299 182.346 144.08 182.474L140.787 182.33C140.729 182.226 140.76 182.076 140.761 181.957C140.394 181.949 140.037 182.028 139.748 181.793Z" fill="#161515"/>
<path fill-rule="evenodd" clip-rule="evenodd" d="M83.3125 88.7421L81.3424 90.5994C80.1579 91.7023 79.0421 92.2287 77.7083 92.8579C77.3389 93.0321 76.9527 93.2143 76.5437 93.4188L54.1505 103.442L47.8005 107.735C47.675 107.829 47.547 107.923 47.4178 108.019C46.6171 108.61 45.7675 109.237 45.1539 109.996C43.6878 111.81 43.0979 114.401 42.5835 116.66C42.5547 116.787 42.5261 116.913 42.4976 117.037L40.9459 125.042L36.7002 152.072L32.4092 183.618L30.5055 198.328C30.0257 202.272 29.5595 206.304 29.6898 210.284C29.8255 214.421 30.712 218.418 32.95 221.948C34.757 224.799 37.532 227.24 40.7081 228.437C44.4997 229.865 48.5566 230.789 52.5408 231.696C53.3006 231.869 54.0577 232.042 54.8099 232.217L79.5937 238.439L82.5071 243.64C82.6906 243.677 82.9298 243.705 83.1862 243.736C83.7372 243.801 84.3675 243.875 84.6953 244.065L84.5919 247.986L0.82517 248.02L0.674927 254.27L224.072 254.232L224.087 248.041L176.415 247.671C179.093 244.969 179.569 240.82 179.093 236.903L184.345 225.887L188.701 215.368C188.909 214.835 189.122 214.301 189.335 213.765C191.003 209.562 192.712 205.258 192.825 200.698C192.905 197.462 192.013 194.276 191.141 191.157C190.982 190.588 190.823 190.021 190.671 189.457L188.588 181.637L183.576 163.538L174.293 130.694C173.844 129.116 173.402 127.532 172.961 125.946C171.215 119.677 169.459 113.373 167.154 107.31L167.152 107.306C166.64 105.959 166.05 104.408 164.923 103.442C163.62 102.328 161.927 101.549 160.289 100.795C159.644 100.499 159.008 100.206 158.408 99.8986L132.667 92.0721L144.219 110.205L139.217 115.137L139.217 115.137C138.46 115.827 137.761 116.501 137.127 117.308L147.967 123.418L147.948 123.615L147.925 123.857C147.813 125.053 147.688 126.39 147.351 127.503L147.351 127.504L144.182 146.18C143.927 147.927 143.537 149.627 143.144 151.341L143.144 151.342L143.144 151.342C143.062 151.702 142.979 152.062 142.898 152.424L142.868 152.558C142.065 156.121 141.264 159.677 140.185 163.169C140.118 163.386 140.053 163.608 139.988 163.834L139.988 163.834L139.988 163.835C139.73 164.726 139.461 165.656 138.98 166.416C139.117 164.834 139.543 163.216 139.96 161.636L139.96 161.636C140.113 161.052 140.266 160.474 140.402 159.904L142.053 152.416L146.727 127.041C146.755 126.993 146.783 126.943 146.811 126.894C146.913 126.711 147.016 126.526 147.17 126.387L147.17 126.387C147.016 126.526 146.912 126.711 146.81 126.894L146.81 126.894C146.782 126.944 146.755 126.993 146.726 127.041L147.041 123.764C146.954 123.579 143.356 121.521 140.917 120.126L140.917 120.125L140.914 120.124C139.897 119.542 139.082 119.076 138.809 118.91L136.371 117.288L138.841 114.836L138.841 114.836C139.228 114.428 139.641 114.017 140.059 113.6C141.208 112.455 142.4 111.266 143.241 109.967C141.177 107.039 139.355 103.97 137.531 100.899C136.447 99.073 135.363 97.2468 134.227 95.4494C133.967 95.0379 133.718 94.6124 133.468 94.1856C132.997 93.3812 132.523 92.572 131.968 91.8427C130.205 89.5251 128.225 87.3046 125.619 85.9569C125.657 87.0414 125.843 88.002 126.036 89.0022C126.108 89.3738 126.181 89.7508 126.247 90.1416L127.154 96.4783L128.558 110.646C128.726 112.155 128.956 113.66 129.187 115.165C129.493 117.169 129.8 119.173 129.96 121.187C130.202 124.226 130.136 127.26 130.035 130.303C129.775 138.189 128.621 146.112 125.953 153.564L123.206 160.263C123.178 160.324 123.149 160.385 123.121 160.446C122.548 161.673 121.948 162.961 121.097 164.017C117.596 160.305 115.013 155.619 112.56 151.171L112.484 151.034C106.434 140.06 101.561 128.724 97.3566 116.927L92.3002 101.874L108.759 119.801L109.24 118.845C109.055 118.658 108.913 118.48 108.757 118.27C108.504 118.101 108.256 117.771 108.028 117.468C107.926 117.333 107.828 117.203 107.736 117.095L105.032 114.015C103.681 112.516 102.282 111.049 100.882 109.579C97.9138 106.465 94.9384 103.342 92.3915 99.8986C91.7311 99.0058 91.3723 98.1999 91.0365 97.148C89.9436 93.7287 88.6999 89.4357 89.1426 85.8437C89.288 84.6644 89.9031 83.2147 90.46 82.1642L90.5708 81.9578L88.466 83.3147C87.8966 83.7356 87.4049 84.2858 86.9258 84.8218C86.807 84.9548 86.6889 85.0869 86.5707 85.216L83.3125 88.7421ZM80.3082 91.7885L79.721 92.1609V93.1372C79.7232 94.2234 79.6399 95.3243 79.5566 96.4246L79.5566 96.4249C79.4951 97.2375 79.4336 98.0498 79.4066 98.8556L79.2197 112.748C79.2208 113.208 79.2019 113.703 79.1825 114.213L79.1825 114.213C79.1343 115.479 79.0827 116.832 79.3256 117.938L85.45 120.365L88.4759 121.393C88.6298 121.441 88.7829 121.479 88.9339 121.517C89.3525 121.621 89.7557 121.722 90.1187 121.997L84.3078 126.041C83.9862 126.269 83.6508 126.494 83.3119 126.722L83.3118 126.722L83.3113 126.722L83.311 126.723L83.3108 126.723C82.3833 127.346 81.4299 127.987 80.6615 128.744L80.665 128.991L81.2854 129.589L81.688 129.432L81.688 129.432L81.2853 129.589L81.2818 129.607L84.2188 133.853C87.3296 138.53 114.277 178.8 115.612 179.443C114.954 178.534 114.345 177.545 113.741 176.561L113.741 176.561L113.741 176.561L113.741 176.561L113.74 176.561L113.74 176.561L113.74 176.561L113.74 176.561C113.371 175.961 113.004 175.362 112.627 174.786L106.176 165.054L89.1508 139.886L84.5781 133.091L82.5954 130.223C82.5467 130.153 82.494 130.08 82.4399 130.005L82.4397 130.005C82.201 129.676 81.937 129.311 81.8793 128.928L81.8588 128.717L81.8589 128.716L90.8657 121.889L90.5191 121.659L90.5189 121.659C89.5296 121.152 88.4347 120.773 87.3514 120.398C86.8148 120.212 86.281 120.027 85.7644 119.828C85.1266 119.583 84.4895 119.317 83.8509 119.051L83.8508 119.051C82.5978 118.529 81.3389 118.005 80.0583 117.623L80.3082 91.7885ZM69.6372 171.854L69.6373 171.854L68.8114 177.081C68.7551 177.4 68.6974 177.717 68.64 178.033C68.3247 179.764 68.0172 181.453 67.9953 183.239L67.9955 183.239C68.46 186.067 67.4524 190.639 66.5019 194.953C65.8066 198.108 65.1419 201.125 65.1062 203.219C64.8598 204.697 66.0461 204.877 67.5942 205.111C68.4421 205.239 69.3985 205.384 70.2877 205.767C69.8034 206.036 69.3866 206.121 68.8502 205.98L64.2325 204.684C64.7963 202.5 65.1007 200.275 65.4057 198.046L65.4058 198.045C65.4607 197.644 65.5155 197.243 65.5719 196.843L67.6201 180.989L67.6199 180.989C67.5104 180.472 67.6852 179.639 67.8389 178.906C67.91 178.567 67.9765 178.249 68.0085 177.995L69.0354 170.255L69.0353 170.254L69.9505 160.564C70.4123 152.815 69.9095 144.901 68.1308 137.334C67.7471 135.702 67.2524 134.095 66.758 132.49C66.4921 131.627 66.2262 130.763 65.9777 129.896C67.732 133.104 68.7752 136.677 69.5767 140.229C70.3147 143.503 70.877 146.732 71.0996 150.082C71.5867 157.43 70.732 164.603 69.6372 171.854ZM135.494 178.106L135.578 178.103C136.456 178.078 137.286 178.054 138.155 178.231C138.453 178.479 138.614 178.921 138.758 179.315C138.791 179.408 138.824 179.498 138.858 179.582L136.619 179.693L133.259 179.762C133.495 179.585 133.723 179.393 133.952 179.2L133.952 179.2L133.952 179.199C134.439 178.789 134.928 178.377 135.494 178.106ZM161.167 218.538C161.208 218.552 161.229 218.559 161.243 218.573C161.252 218.581 161.259 218.592 161.266 218.608C161.271 218.619 161.277 218.632 161.284 218.649L161.284 218.649C161.289 218.66 161.294 218.673 161.3 218.688C161.31 218.71 161.322 218.737 161.337 218.77L160.98 218.959C158.964 218.834 156.936 218.905 154.914 218.977H154.914L154.913 218.977L154.913 218.977C154.311 218.998 153.709 219.019 153.109 219.035C152.915 219.04 152.662 219.058 152.381 219.079C151.474 219.144 150.262 219.231 149.709 218.977C149.626 218.939 149.564 218.869 149.502 218.8L149.502 218.799C149.471 218.765 149.44 218.73 149.407 218.699L149.533 218.429L150.511 218.208L152.501 204.79L157.513 204.797L158.883 213.824C158.914 213.982 158.944 214.142 158.975 214.303L158.994 214.404L158.994 214.406C159.233 215.679 159.485 217.021 159.991 218.186C160.31 218.37 160.613 218.419 160.963 218.476L161.028 218.486L161.028 218.486C161.071 218.503 161.105 218.516 161.132 218.526C161.145 218.53 161.156 218.534 161.167 218.538ZM154.056 198.848C153.763 198.869 153.513 198.887 153.331 198.894C152.364 198.985 151.948 199.053 151.265 199.76L151.37 199.958L156.554 199.929C156.681 199.923 156.81 199.924 156.939 199.925C157.405 199.927 157.869 199.93 158.216 199.619L158.172 199.028C157.55 198.6 155.375 198.755 154.057 198.848L154.056 198.848ZM133.165 191.699L140.063 191.654C140.572 191.679 140.872 191.76 141.226 192.128L141.052 192.362L140.038 192.438L134.409 192.528C134.219 192.528 134.016 192.534 133.808 192.54C133.149 192.56 132.433 192.58 131.855 192.421L131.733 192.128C132.094 191.785 132.487 191.754 132.943 191.718C133.016 191.712 133.089 191.706 133.165 191.699ZM131.437 192.976C132.415 192.919 133.376 192.944 134.341 192.97C134.926 192.985 135.513 193.001 136.105 192.998L139.57 192.896C139.617 192.895 139.664 192.893 139.712 192.891L139.837 192.886L139.837 192.886H139.837H139.837C140.497 192.858 141.205 192.828 141.759 193.178V193.633C141.577 193.709 141.453 193.726 141.254 193.731L133.974 193.768C133.855 193.767 133.7 193.773 133.523 193.778H133.523C132.849 193.801 131.872 193.833 131.512 193.603C131.438 193.556 131.377 193.492 131.316 193.427L131.316 193.427C131.285 193.395 131.254 193.362 131.221 193.332L131.437 192.976ZM151.533 200.418L156.541 200.421C156.613 200.422 156.688 200.422 156.766 200.421C156.825 200.421 156.885 200.42 156.947 200.419L156.953 200.419H156.953H156.954H156.954H156.954H156.955C157.728 200.41 158.691 200.399 159.284 200.751C159.287 200.786 159.291 200.819 159.294 200.85L159.3 200.902L159.3 200.902C159.332 201.179 159.346 201.304 159.193 201.598L158.684 201.668L153.066 201.615C153.007 201.613 152.945 201.612 152.88 201.612C152.819 201.612 152.756 201.611 152.691 201.611C152.086 201.61 151.301 201.608 150.876 201.362C150.854 201.349 150.835 201.338 150.818 201.328L150.817 201.327C150.751 201.29 150.722 201.274 150.707 201.249C150.695 201.23 150.691 201.205 150.684 201.161C150.678 201.123 150.67 201.071 150.652 200.995C150.948 200.63 151.061 200.589 151.445 200.45L151.533 200.418ZM113.781 203.668L113.715 204.068C114.431 204.571 115.231 204.554 116.068 204.536C116.253 204.532 116.441 204.528 116.629 204.529L121.015 204.556C121.146 204.553 121.318 204.557 121.514 204.561H121.514H121.515H121.515H121.516H121.516H121.516H121.517H121.517H121.517H121.518H121.518H121.519H121.519H121.519H121.52H121.52H121.521H121.521C122.255 204.576 123.308 204.598 123.668 204.325C123.676 204.263 123.684 204.208 123.692 204.16L123.692 204.159C123.73 203.907 123.746 203.804 123.583 203.53C122.524 203.252 121.233 203.295 120.034 203.335C119.637 203.348 119.25 203.361 118.885 203.362C118.546 203.362 118.16 203.348 117.75 203.332C116.397 203.281 114.788 203.221 113.781 203.668ZM69.9036 206.536L69.9335 206.526C70.0393 206.488 70.1 206.466 70.2468 206.468C70.7266 206.477 71.3037 206.634 71.8489 206.782C72.1218 206.856 72.3867 206.928 72.6274 206.978L85.1662 209.983C85.3399 210.033 85.5523 210.085 85.7837 210.141L85.7853 210.141L85.786 210.141L85.7865 210.141C86.6167 210.343 87.6892 210.604 88.09 211.067C86.8107 211.568 72.0085 207.359 69.8798 206.545L69.9036 206.536ZM118.138 205.064H118.137H118.137H118.136H118.135H118.135H118.134H118.134H118.133H118.133H118.132H118.132H118.131H118.131H118.13H118.13H118.13H118.129H118.129H118.128H118.128H118.127H118.127C117.471 205.076 116.831 205.087 116.227 205.078C116.064 205.082 115.895 205.082 115.724 205.082H115.724H115.724H115.724H115.724H115.723H115.723H115.723H115.723C115.101 205.081 114.448 205.081 113.881 205.273C113.695 205.572 113.696 205.745 113.698 206.039C113.699 206.075 113.699 206.113 113.699 206.153C113.699 206.173 113.699 206.192 113.698 206.212C113.736 206.233 113.766 206.25 113.791 206.265C113.804 206.273 113.816 206.28 113.827 206.287L113.827 206.287C113.91 206.338 113.93 206.351 114.071 206.364C115.024 206.457 116.019 206.421 117.008 206.385C117.632 206.362 118.255 206.339 118.863 206.349L122.298 206.503C122.372 206.503 122.467 206.507 122.57 206.511L122.57 206.511H122.57C122.852 206.522 123.201 206.536 123.386 206.479C123.457 206.457 123.509 206.4 123.561 206.343C123.587 206.314 123.613 206.286 123.641 206.262C123.653 206.184 123.666 206.116 123.678 206.054C123.728 205.801 123.757 205.654 123.569 205.382C121.926 205 119.97 205.033 118.138 205.064ZM120.729 208.348C120.486 208.344 120.048 208.345 119.495 208.347C117.163 208.353 112.783 208.366 112.301 208.029C112.288 207.949 112.276 207.895 112.267 207.855C112.256 207.806 112.25 207.779 112.255 207.754C112.261 207.724 112.282 207.698 112.33 207.638L112.331 207.638L112.36 207.601L112.389 207.564C112.771 207.079 113.489 207.041 114.094 207.01H114.094L114.094 207.01L114.095 207.01C114.175 207.005 114.254 207.001 114.329 206.996C116.459 206.853 118.602 206.905 120.735 206.956L120.978 206.962C121.219 206.968 121.477 206.964 121.74 206.96H121.74C122.346 206.952 122.984 206.943 123.527 207.048C123.875 207.115 124.257 207.301 124.509 207.554L124.603 207.675L124.484 207.958C123.941 208.125 123.433 208.236 122.87 208.301C122.486 208.22 121.882 208.267 121.353 208.308L121.352 208.308C121.122 208.326 120.907 208.343 120.729 208.348ZM133.217 195.54C133.827 195.535 134.371 195.53 134.671 195.569L138.495 195.508C138.83 195.508 139.216 195.527 139.624 195.547L139.625 195.547C140.73 195.602 141.995 195.664 142.834 195.379L142.856 195.152C142.75 195.078 142.649 195.021 142.541 194.96L142.541 194.96L142.54 194.96C142.515 194.946 142.49 194.931 142.465 194.917C142.273 194.807 142.157 194.637 142.037 194.46L142.036 194.459L142.034 194.456C142.011 194.422 141.988 194.388 141.964 194.354C140.983 194.119 139.885 194.148 138.836 194.177H138.835H138.835H138.835H138.835H138.834H138.834H138.834H138.833H138.833H138.833H138.833H138.833C138.53 194.185 138.232 194.193 137.942 194.194L130.664 194.323C130.35 194.563 130.286 194.804 130.195 195.147L130.195 195.148C130.187 195.177 130.179 195.207 130.171 195.238C130.53 195.564 132.005 195.551 133.217 195.54ZM154.381 202.096H154.382C154.88 202.104 155.377 202.112 155.869 202.113C156.204 202.114 156.553 202.106 156.91 202.097C158.07 202.07 159.309 202.04 160.362 202.317C161.044 202.496 161.291 202.927 161.592 203.449L161.592 203.45L161.592 203.45C161.657 203.563 161.725 203.68 161.799 203.8L159.625 203.947L151.401 203.929C151.202 203.928 150.958 203.939 150.696 203.95L150.694 203.951L150.693 203.951H150.693H150.693H150.693H150.692H150.692H150.692C149.995 203.981 149.165 204.017 148.684 203.863C148.617 203.842 148.569 203.785 148.522 203.728L148.522 203.728C148.499 203.7 148.475 203.671 148.449 203.647C148.482 203.348 148.513 203.168 148.69 202.914C149.107 202.313 149.969 202.219 150.637 202.146L150.672 202.142C151.892 202.055 153.142 202.076 154.381 202.096ZM133.25 181.811L139.748 181.794C139.974 181.977 140.241 181.969 140.522 181.961L140.523 181.961C140.601 181.958 140.681 181.956 140.761 181.958C140.761 181.987 140.759 182.017 140.756 182.049V182.049C140.75 182.147 140.743 182.252 140.787 182.331L144.08 182.474C144.247 182.376 144.292 182.22 144.341 182.047C144.356 181.994 144.372 181.939 144.392 181.884L144.632 181.599L144.515 181.312C143.88 181.06 143.236 180.978 142.587 180.896C142.194 180.845 141.8 180.795 141.406 180.707C141.09 180.637 140.787 180.533 140.484 180.431C140 180.266 139.518 180.102 138.987 180.073C136.242 179.923 133.305 180.158 130.609 180.641C130.424 180.674 130.245 180.701 130.072 180.726C129.332 180.835 128.69 180.93 128.05 181.483L128.148 181.699C129.483 181.918 130.869 181.877 132.233 181.837C132.574 181.827 132.913 181.817 133.25 181.811ZM119.183 185.627L119.246 185.602C119.661 185.536 119.945 185.536 120.314 185.721C120.419 186.231 120.234 186.788 120.063 187.302L120.063 187.303C120.022 187.426 119.982 187.548 119.946 187.665L121.801 187.922C121.931 188.52 121.928 189.429 121.619 189.941C121.217 190.056 120.822 190.014 120.416 189.971L120.344 189.963C120.313 189.96 120.281 189.957 120.249 189.954C120.234 189.952 120.22 189.951 120.206 189.949C119.878 190.108 119.929 190.561 119.982 191.042C120.03 191.48 120.081 191.941 119.852 192.222L118.474 192.244L117.661 192.217C117.432 191.873 117.5 191.009 117.55 190.376C117.563 190.202 117.576 190.046 117.58 189.923L115.371 189.831C115.368 189.777 115.365 189.72 115.362 189.66C115.329 189.064 115.284 188.242 115.612 187.825L117.083 187.967L117.079 185.662L119.183 185.627ZM123.834 208.87L124.354 208.905C125.063 209.004 125.901 209.696 126.312 210.249L126.313 210.25C126.532 210.545 126.57 210.596 126.509 210.939C125.979 211.157 125.416 211.157 124.851 211.157C124.739 211.157 124.627 211.157 124.515 211.159L121.312 211.18C120.383 211.181 119.435 211.2 118.479 211.219H118.479C115.697 211.274 112.844 211.331 110.173 210.966L111.031 209.876C111.268 209.619 111.739 209.148 112.06 209.024C112.645 208.796 113.663 208.827 114.489 208.853C114.758 208.861 115.006 208.869 115.212 208.866L123.834 208.87ZM138.756 196.051L132.597 195.993C132.395 195.995 132.129 195.981 131.84 195.966C131.179 195.931 130.4 195.889 129.995 196.022C129.792 196.09 129.29 196.636 128.972 196.983C128.882 197.08 128.808 197.162 128.758 197.213C128.583 197.391 128.5 197.546 128.422 197.782L128.532 198.065C129.282 198.341 130.19 198.353 131.037 198.365C131.279 198.368 131.516 198.372 131.742 198.381L140.081 198.467C140.412 198.463 140.783 198.474 141.174 198.486L141.176 198.486L141.177 198.486C142.36 198.522 143.716 198.563 144.629 198.206L144.791 197.923C144.437 197.241 143.829 196.574 143.184 196.157L141.402 196.037C140.833 196.135 140.158 196.105 139.52 196.077C139.255 196.065 138.997 196.053 138.756 196.051ZM135.818 168.476C135.828 168.474 135.837 168.472 135.846 168.472C135.869 168.471 135.892 168.475 135.941 168.484L135.941 168.484C135.97 168.49 136.008 168.497 136.061 168.506C136.164 168.523 136.221 168.534 136.259 168.541L136.275 168.544L136.296 168.547C136.304 168.549 136.311 168.55 136.319 168.551L136.325 168.552L136.338 168.553C136.349 168.555 136.361 168.556 136.377 168.557L136.425 168.56L136.455 168.562L136.456 168.562L136.513 168.566C137.227 168.61 137.65 168.964 138.146 169.379C138.25 169.465 138.356 169.554 138.469 169.644C138.142 170.396 137.919 170.93 137.99 171.776C138.321 172.067 139.174 172.019 139.809 171.984C139.977 171.975 140.13 171.966 140.254 171.965L140.243 174.49L137.893 174.406C137.89 174.648 137.893 174.895 137.895 175.144V175.144V175.145V175.145C137.902 175.851 137.909 176.577 137.802 177.249L137.377 177.354L134.999 177.223L135.208 174.546L132.79 174.517L132.722 171.816L135.242 172.014L135.185 171.423C135.138 170.788 135.105 170.364 134.798 169.791L134.723 169.656L134.805 169.373C135.069 169.317 135.293 169.247 135.54 169.14L135.632 168.526C135.691 168.511 135.731 168.499 135.761 168.491L135.761 168.491C135.786 168.484 135.803 168.479 135.818 168.476ZM154.3 186.899L155.044 186.832C155.498 186.849 155.973 187.175 156.233 187.535C156.413 187.784 156.473 188.073 156.424 188.373C156.344 188.862 156.014 189.231 155.631 189.514L155.531 189.585C155.887 189.855 156.321 190.021 156.766 190.19C157.261 190.379 157.771 190.573 158.2 190.924C159.204 191.745 159.657 193.149 159.722 194.409C159.776 195.471 159.168 196.947 158.417 197.721C157.907 198.248 157.111 198.282 156.406 198.312L156.405 198.312L156.322 198.315C156.26 198.318 156.2 198.321 156.14 198.324L152.045 198.34L152.014 198.312C151.695 198.024 151.368 197.729 151.11 197.384C150.177 196.139 149.871 194.642 150.165 193.118C150.384 191.979 151.764 190.486 152.783 189.928C152.934 189.846 153.086 189.786 153.238 189.727C153.437 189.649 153.636 189.572 153.828 189.443C153.487 188.771 153.395 188.5 153.454 187.747C153.703 187.288 153.846 187.157 154.3 186.899ZM140.787 182.331L144.08 182.474C142.372 185.075 141.155 188.313 140.437 191.319L134.935 191.317C134.729 191.311 134.517 191.31 134.301 191.309H134.3C133.68 191.307 133.035 191.304 132.456 191.181C131.611 188.037 130.178 185.129 128.509 182.35L140.787 182.331ZM118.76 192.794L118.303 192.812C118.186 192.825 118.048 192.834 117.9 192.845C117.489 192.873 117.005 192.906 116.72 193.042C116.44 193.176 116.065 193.667 115.772 194.051C115.669 194.186 115.577 194.308 115.501 194.396C115.498 194.401 115.494 194.406 115.488 194.413L115.466 194.44L115.43 194.487L115.43 194.488L115.43 194.488L115.43 194.488L115.429 194.488L115.429 194.488C115.328 194.619 115.162 194.834 115.113 194.855C114.918 194.937 114.58 194.966 114.281 194.991C114.14 195.003 114.007 195.015 113.903 195.031L110.844 195.463L114.589 202.917L119.322 202.868L123.313 202.837C123.58 201.917 123.995 201.094 124.418 200.257L124.418 200.257L124.418 200.257L124.418 200.256L124.418 200.256C124.547 200 124.677 199.742 124.804 199.48L126.535 195.469L121.574 194.814C121.629 194.308 121.606 194.133 121.265 193.738C120.533 192.889 119.835 192.797 118.76 192.794ZM146.507 226.66L146.507 226.66L146.505 226.658L146.5 226.652L146.397 226.544C146.359 226.504 146.32 226.464 146.282 226.424C145.913 226.042 145.827 225.952 145.775 225.413C146.103 224.5 146.877 223.875 147.65 223.25C148.345 222.689 149.039 222.128 149.407 221.358C149.643 220.866 149.693 220.275 149.74 219.722C149.744 219.682 149.747 219.642 149.751 219.602C149.755 219.554 149.759 219.506 149.764 219.458L160.79 219.459C160.861 220.595 160.94 221.573 161.824 222.38C162.166 222.692 162.61 222.984 163.071 223.288L163.071 223.288C164.219 224.043 165.472 224.868 165.515 226.239C165.533 226.81 165.165 227.479 164.835 227.921C164.196 228.217 163.486 228.243 162.778 228.268C162.371 228.283 161.964 228.297 161.573 228.363C160.798 228.202 159.782 228.257 158.843 228.307C158.419 228.33 158.011 228.352 157.648 228.353L148.324 228.225C147.645 227.856 147.053 227.233 146.507 226.66L146.507 226.66ZM130.422 219.478C130.433 219.517 130.445 219.562 130.457 219.618L134.653 219.631C134.855 219.632 135.071 219.624 135.291 219.617H135.291H135.291H135.292H135.292C135.771 219.6 136.27 219.582 136.702 219.648C137.431 219.631 138.181 219.651 138.936 219.671H138.937C140.244 219.706 141.564 219.741 142.806 219.583L142.836 219.406L142.286 219.153C140.891 217.554 139.649 202.308 139.504 199.324L133.369 199.428C133.025 204.167 132.646 208.831 131.896 213.526C131.856 213.777 131.817 214.039 131.777 214.308C131.537 215.919 131.259 217.778 130.479 219.104C130.37 219.288 130.385 219.341 130.422 219.478ZM111.524 229.857C111.51 229.819 111.502 229.8 111.503 229.782C111.503 229.765 111.51 229.747 111.524 229.714C111.536 229.685 111.553 229.645 111.575 229.582L112.915 229.067C113.322 228.173 113.564 227.101 113.789 226.103L113.789 226.102C113.835 225.898 113.88 225.698 113.926 225.502C114.964 221.08 115.376 216.536 115.656 212.012L122.016 211.975C122.024 215.655 122.632 219.345 123.304 222.954C123.356 223.23 123.406 223.513 123.457 223.8C123.812 225.807 124.204 228.02 125.39 229.623L125.487 229.515C125.674 227.907 126.717 226.693 127.754 225.487L127.754 225.487L127.754 225.487C128.27 224.885 128.785 224.286 129.192 223.641C129.848 222.598 130.133 221.629 130.361 220.428L137.71 220.455C138.047 220.453 138.39 220.458 138.737 220.464C139.767 220.479 140.823 220.495 141.813 220.342L142.392 220.396C142.55 220.662 142.581 220.986 142.612 221.308C142.628 221.479 142.645 221.649 142.68 221.809C142.794 222.334 143.031 222.886 143.272 223.365C143.707 224.228 144.6 225.361 145.271 226.069C145.497 226.307 145.729 226.52 145.959 226.73L145.96 226.731C146.326 227.066 146.687 227.396 147.011 227.82C149.426 231.924 146.741 231.924 145.033 231.924H138.173C137.24 231.923 136.26 231.961 135.262 232C132.691 232.1 130.003 232.205 127.696 231.661C127.335 231.422 127.24 231.164 127.103 230.796L127.071 230.711L126.882 230.205L126.814 230.016C126.099 229.915 125.259 229.96 124.451 230.003H124.451H124.45H124.45C124.036 230.026 123.63 230.047 123.253 230.049L113.825 230.008L111.561 229.954C111.546 229.911 111.534 229.881 111.524 229.857L111.524 229.857ZM95.1043 212.233C94.0546 212.002 92.6434 211.691 91.9643 211.916C87.8431 214.56 85.3913 220.432 84.3799 225.039C83.3046 229.941 83.1596 235.798 85.4504 240.385L97.2385 241.907L97.42 241.596L97.4109 241.561C96.9733 239.91 96.5426 238.284 96.3559 236.58C95.7585 231.129 96.8445 224.688 99.5868 219.892C100.968 217.477 102.537 215.392 105.044 214.06C102.905 213.553 100.718 213.196 98.5384 212.84L98.5375 212.84C97.6626 212.697 96.7887 212.554 95.9195 212.402C95.6996 212.364 95.4181 212.302 95.1043 212.233Z" fill="#0C0C0C"/>
</svg>
