<svg width="19" height="27" viewBox="0 0 19 27" fill="none" xmlns="http://www.w3.org/2000/svg">
<path d="M18.2738 25.6586H17.7864C17.7864 25.6534 17.784 25.6483 17.7829 25.6434L17.7696 25.5838C17.7611 25.5446 17.7518 25.5057 17.7423 25.4671C17.7382 25.449 17.7337 25.4308 17.7293 25.4127C17.7166 25.3618 17.7033 25.3109 17.6896 25.2601L17.6855 25.2455C17.6705 25.1904 17.6548 25.1355 17.6384 25.0809L17.622 25.0281C17.6107 24.9905 17.5987 24.9532 17.5878 24.9159C17.5813 24.8955 17.5745 24.8754 17.568 24.8553C17.556 24.8194 17.5437 24.7834 17.531 24.7478C17.5246 24.729 17.5177 24.7098 17.5112 24.6914C17.4953 24.6467 17.4789 24.6023 17.462 24.5582C17.4582 24.5488 17.4552 24.5397 17.4514 24.5303C17.4316 24.4785 17.4107 24.427 17.3895 24.3754C17.382 24.3566 17.3742 24.3382 17.3663 24.3197C17.3519 24.2873 17.3376 24.2517 17.3229 24.218L17.2952 24.1554C17.2809 24.123 17.2662 24.0906 17.2511 24.0582C17.2419 24.0381 17.2323 24.0177 17.2227 23.9976C17.2053 23.9603 17.1886 23.9234 17.1691 23.8868C17.1619 23.8728 17.1554 23.8586 17.1482 23.8443C17.124 23.7961 17.099 23.7471 17.0737 23.7005L17.0395 23.6399L16.9914 23.552L16.9538 23.4872C16.938 23.46 16.9223 23.4328 16.9062 23.4056C16.8936 23.3835 16.8806 23.3615 16.8676 23.3408C16.8499 23.3113 16.8334 23.2824 16.814 23.2533L16.7647 23.1742C16.7415 23.1379 16.7183 23.1013 16.6943 23.0653C16.6793 23.0427 16.6643 23.0203 16.6489 22.9979C16.6335 22.9756 16.6167 22.95 16.6003 22.9263C16.5839 22.9027 16.5662 22.879 16.5511 22.8557C16.5361 22.8324 16.5197 22.8113 16.5036 22.7909C16.4875 22.7705 16.4694 22.7432 16.452 22.7196L16.4038 22.6548C16.3696 22.6117 16.3382 22.5686 16.3047 22.5252L16.2579 22.4659C16.238 22.4409 16.2175 22.4163 16.1974 22.3917L16.1522 22.3372C16.1314 22.3123 16.1102 22.2876 16.089 22.2627L16.0446 22.2115L15.9783 22.1363L15.939 22.0929C15.8573 22.0031 15.7735 21.9147 15.6877 21.8285L15.6502 21.7906L15.5715 21.7138L15.5329 21.6768C15.5056 21.6506 15.4782 21.6247 15.4505 21.5991L15.4222 21.5731C15.3254 21.484 15.226 21.3972 15.1248 21.3139L15.0971 21.2909C15.0659 21.265 15.0345 21.2394 15.0028 21.2141L14.9713 21.1888C14.9372 21.1629 14.9061 21.1373 14.8729 21.1117L14.8562 21.0991C14.7444 21.0135 14.6299 20.9302 14.5144 20.8502L14.4983 20.8389C14.4617 20.8139 14.4252 20.7893 14.3882 20.765L14.364 20.7491C14.3264 20.7241 14.2884 20.6998 14.2505 20.6755L14.244 20.6717C14.1182 20.5919 13.99 20.5156 13.8595 20.4426L13.8544 20.4393C13.813 20.4163 13.7716 20.3939 13.7303 20.3716L13.7122 20.3619C13.4921 20.2441 13.266 20.1361 13.034 20.0378L13.0197 20.0317C12.9585 20.0058 12.897 19.9808 12.8348 19.9562H14.0581C14.2573 19.9562 14.419 19.7387 14.419 19.4701C14.419 19.2015 14.2573 18.9841 14.0581 18.9841H13.6937C13.7163 18.9296 13.7412 18.868 13.7682 18.7987C14.1128 18.5952 14.7191 18.1616 15.3207 17.3651L15.3254 17.359C15.371 17.2994 15.4158 17.2377 15.4598 17.174L15.4687 17.1613C15.5124 17.0988 15.5562 17.0343 15.5992 16.9669L15.6108 16.9491C15.6314 16.9167 15.6519 16.8843 15.6724 16.8519C15.6724 16.8519 15.6724 16.8493 15.6748 16.8477C15.6959 16.8153 15.7168 16.7796 15.7376 16.7449L15.751 16.7226C15.7688 16.6928 15.7869 16.6623 15.8043 16.6315C15.8077 16.626 15.8111 16.6205 15.8142 16.6147C15.8344 16.5797 15.8545 16.544 15.8744 16.5081L15.888 16.4831C15.9044 16.4533 15.9205 16.4232 15.9366 16.3927C15.9414 16.3843 15.9461 16.3755 15.9506 16.3668C15.9697 16.3302 15.9889 16.2932 16.008 16.2556L16.0213 16.2294C16.0364 16.1989 16.0518 16.1678 16.0668 16.1367L16.0832 16.1043C16.1017 16.0661 16.1198 16.0272 16.1379 15.988L16.1492 15.963C16.1642 15.9306 16.1789 15.8982 16.1936 15.8658L16.211 15.8269C16.2281 15.7877 16.2452 15.7482 16.2616 15.7083C16.2647 15.7012 16.2678 15.6937 16.2705 15.6866C16.2859 15.65 16.3009 15.6127 16.316 15.5751L16.3331 15.5324C16.3471 15.4967 16.3611 15.4608 16.3748 15.4248L16.385 15.3976C16.4011 15.3548 16.4168 15.3111 16.4325 15.268L16.4489 15.2219C16.4612 15.1876 16.4732 15.1526 16.4852 15.1176C16.4896 15.1046 16.494 15.0917 16.4981 15.0787C16.5132 15.034 16.5282 14.9883 16.5429 14.9426C16.5477 14.9267 16.5528 14.9102 16.5576 14.8953L16.5918 14.7887C16.5962 14.7732 16.601 14.7563 16.6055 14.7424C16.6195 14.6954 16.6335 14.6474 16.6468 14.5991C16.6513 14.5839 16.6554 14.5684 16.6595 14.5528C16.6697 14.5155 16.68 14.4783 16.6899 14.4404C16.6943 14.4232 16.6988 14.406 16.7036 14.3888C16.7162 14.3389 16.7289 14.2887 16.7412 14.2378L16.7514 14.1954C16.761 14.1549 16.7706 14.114 16.7798 14.0729L16.7921 14.0178C16.8037 13.965 16.8153 13.9122 16.8263 13.8584C16.8287 13.848 16.8307 13.8373 16.8328 13.826C16.8423 13.7796 16.8516 13.7327 16.8604 13.6857C16.8642 13.6666 16.8676 13.6474 16.8714 13.6283C16.8803 13.58 16.8888 13.5311 16.8974 13.4828C16.8991 13.4725 16.9011 13.4624 16.9028 13.4524C16.9124 13.3953 16.9217 13.3379 16.9309 13.28C16.9339 13.2605 16.937 13.2411 16.9397 13.2213C16.9469 13.1743 16.9538 13.127 16.9606 13.0791L16.9667 13.035C16.9749 12.9754 16.9828 12.9154 16.9903 12.8545C16.9927 12.8354 16.9948 12.8163 16.9972 12.7968C17.0031 12.7484 17.0086 12.6998 17.0136 12.651C17.0156 12.6335 17.0177 12.6163 17.0194 12.5988C17.026 12.5362 17.0321 12.473 17.0378 12.4093C17.0378 12.3915 17.0409 12.3736 17.0423 12.3555C17.0467 12.3043 17.0512 12.2528 17.0549 12.2009C17.0549 12.1818 17.058 12.1627 17.0594 12.1436C17.0642 12.0775 17.0686 12.0109 17.0727 11.944C17.0727 11.9287 17.0727 11.9115 17.0751 11.8979C17.0782 11.8422 17.0812 11.7861 17.0836 11.7298C17.0836 11.7093 17.0836 11.6889 17.0864 11.6685C17.0891 11.5989 17.0918 11.5289 17.0939 11.4579C17.0939 11.4482 17.0939 11.4381 17.0939 11.4281C17.0957 11.365 17.0971 11.3013 17.098 11.2369C17.098 11.2158 17.098 11.1948 17.098 11.1737C17.098 11.1046 17.098 11.035 17.098 10.965V10.9488C17.098 10.8743 17.098 10.7988 17.098 10.722V10.6572C17.098 10.5924 17.0953 10.5243 17.0935 10.4569V10.4203C17.0912 10.3425 17.0881 10.2638 17.085 10.1847C17.085 10.1643 17.083 10.1436 17.0823 10.1232C17.0793 10.0566 17.0759 9.98967 17.072 9.92227C17.072 9.90574 17.072 9.88986 17.0693 9.87204C17.0645 9.79103 17.0593 9.70937 17.0536 9.62707L17.0495 9.56971C17.0443 9.50101 17.0392 9.43199 17.0334 9.36232C17.0334 9.34223 17.0303 9.32214 17.0286 9.30205C17.0214 9.2178 17.0136 9.13258 17.0054 9.04703C17.0054 9.03083 17.0019 9.01463 17.0006 8.9981C16.9934 8.92519 16.9855 8.85164 16.9777 8.77743C16.9753 8.75507 16.9729 8.73304 16.9702 8.71068C16.9606 8.62254 16.9503 8.53408 16.9394 8.44432C16.9394 8.4333 16.9363 8.42228 16.935 8.41191C16.9252 8.33155 16.9148 8.25076 16.9039 8.16953C16.9004 8.14555 16.8974 8.12158 16.8939 8.0976C16.8812 8.00557 16.8681 7.91278 16.8546 7.81924C15.4875 -1.40748 5.79892 0.0899114 5.79892 0.0899114L6.10928 2.07239L0.249878 7.94076L0.505882 10.2068L2.7255 11.5029C2.82445 11.2645 2.95149 11.0374 3.10421 10.826C4.53633 9.25993 7.31479 8.03052 8.11014 7.7755C8.26942 7.72463 8.36 7.69903 8.36 7.69903C4.55547 12.3672 4.98818 17.7151 5.15772 18.9899C4.98135 19.0223 4.84498 19.2242 4.84498 19.4704C4.84498 19.7387 5.00664 19.9565 5.20591 19.9565H6.4292C4.39471 20.7639 2.77977 22.3015 1.93698 24.2338C1.93599 24.2365 1.93485 24.2391 1.93356 24.2416C1.87136 24.385 1.81348 24.5305 1.75993 24.6781C1.76002 24.6796 1.76002 24.6811 1.75993 24.6826C1.74558 24.7228 1.73156 24.763 1.71789 24.8035C1.71276 24.8181 1.70764 24.8327 1.70285 24.8476C1.69055 24.8839 1.67915 24.9205 1.66867 24.9574C1.66252 24.9762 1.65671 24.9953 1.6509 25.0141C1.63996 25.0488 1.62937 25.0838 1.61911 25.1188L1.60065 25.1836C1.59108 25.216 1.58151 25.2507 1.57263 25.2844C1.56613 25.3083 1.55998 25.332 1.55383 25.356C1.54562 25.3884 1.53708 25.4208 1.52922 25.4532C1.52136 25.4856 1.51384 25.518 1.50632 25.5523C1.4988 25.5867 1.48923 25.6269 1.48103 25.6645H0.993283C0.899491 25.6625 0.806233 25.6783 0.718979 25.711C0.631724 25.7437 0.552234 25.7925 0.485171 25.8547C0.418108 25.9169 0.36482 25.9912 0.328442 26.0732C0.292065 26.1552 0.273326 26.2432 0.273326 26.3322C0.273326 26.4211 0.292065 26.5091 0.328442 26.5911C0.36482 26.6731 0.418108 26.7474 0.485171 26.8096C0.552234 26.8718 0.631724 26.9206 0.718979 26.9533C0.806233 26.986 0.899491 27.0018 0.993283 26.9998H18.2799C18.3737 27.0018 18.467 26.986 18.5542 26.9533C18.6415 26.9206 18.721 26.8718 18.788 26.8096C18.8551 26.7474 18.9084 26.6731 18.9448 26.5911C18.9811 26.5091 18.9999 26.4211 18.9999 26.3322C18.9999 26.2432 18.9811 26.1552 18.9448 26.0732C18.9084 25.9912 18.8551 25.9169 18.788 25.8547C18.721 25.7925 18.6415 25.7437 18.5542 25.711C18.467 25.6783 18.3737 25.6625 18.2799 25.6645L18.2738 25.6586Z" fill="#595653"/>
</svg>
